<svg width="29" height="28" viewBox="0 0 29 28" fill="none" xmlns="http://www.w3.org/2000/svg">
<rect width="28" height="28" transform="translate(0.500366)" fill="white"/>
<path fill-rule="evenodd" clip-rule="evenodd" d="M14.5004 25C20.5755 25 25.5004 20.0751 25.5004 14C25.5004 7.92487 20.5755 3 14.5004 3C8.42523 3 3.50037 7.92487 3.50037 14C3.50037 20.0751 8.42523 25 14.5004 25ZM14.5004 27C21.6801 27 27.5004 21.1797 27.5004 14C27.5004 6.8203 21.6801 1 14.5004 1C7.32066 1 1.50037 6.8203 1.50037 14C1.50037 21.1797 7.32066 27 14.5004 27ZM14.5004 6C15.0527 6 15.5004 6.44772 15.5004 7V13H21.5004C22.0527 13 22.5004 13.4477 22.5004 14C22.5004 14.5523 22.0527 15 21.5004 15H15.5004V21C15.5004 21.5523 15.0527 22 14.5004 22C13.9481 22 13.5004 21.5523 13.5004 21V15H7.50037C6.94808 15 6.50037 14.5523 6.50037 14C6.50037 13.4477 6.94808 13 7.50037 13H13.5004V7C13.5004 6.44772 13.9481 6 14.5004 6Z" fill="#201F21"/>
</svg>
