<svg width="39" height="39" viewBox="0 0 39 39" fill="none" xmlns="http://www.w3.org/2000/svg">
<path d="M13.4873 24.0937C13.0968 24.4842 13.0968 25.1174 13.4873 25.5079C13.8778 25.8984 14.511 25.8984 14.9015 25.5079L13.4873 24.0937ZM25.801 14.1942C25.801 13.6419 25.3533 13.1942 24.801 13.1942L15.801 13.1942C15.2487 13.1942 14.801 13.6419 14.801 14.1942C14.801 14.7465 15.2487 15.1942 15.801 15.1942L23.801 15.1942L23.801 23.1942C23.801 23.7465 24.2487 24.1942 24.801 24.1942C25.3533 24.1942 25.801 23.7465 25.801 23.1942L25.801 14.1942ZM14.9015 25.5079L25.5081 14.9013L24.0939 13.4871L13.4873 24.0937L14.9015 25.5079Z" fill="white"/>
</svg>
