<svg width="28" height="28" viewBox="0 0 28 28" fill="none" xmlns="http://www.w3.org/2000/svg">
<path fill-rule="evenodd" clip-rule="evenodd" d="M17.4277 12.8078C17.4277 15.5019 15.2089 17.7289 12.4185 17.7289C9.62812 17.7289 7.40936 15.5019 7.40936 12.8078C7.40936 10.1137 9.62812 7.88672 12.4185 7.88672C15.2089 7.88672 17.4277 10.1137 17.4277 12.8078ZM17.0264 18.0232C15.7943 19.0854 14.1825 19.7289 12.4185 19.7289C8.54747 19.7289 5.40936 16.6302 5.40936 12.8078C5.40936 8.98539 8.54747 5.88672 12.4185 5.88672C16.2896 5.88672 19.4277 8.98539 19.4277 12.8078C19.4277 14.1699 19.0292 15.4401 18.3411 16.5109L22.2959 20.4161C22.6889 20.8041 22.6889 21.4332 22.2959 21.8213C21.9029 22.2093 21.2658 22.2093 20.8728 21.8213L17.0264 18.0232Z" fill="#201F21"/>
</svg>
