<svg width="29" height="28" viewBox="0 0 29 28" fill="none" xmlns="http://www.w3.org/2000/svg">
<path fill-rule="evenodd" clip-rule="evenodd" d="M17.8865 8.21395C17.8865 10.2721 16.2399 11.9064 14.2505 11.9064C12.2611 11.9064 10.6144 10.2721 10.6144 8.21395C10.6144 6.15583 12.2611 4.52148 14.2505 4.52148C16.2399 4.52148 17.8865 6.15583 17.8865 8.21395ZM19.8865 8.21395C19.8865 11.3578 17.3632 13.9064 14.2505 13.9064C11.1377 13.9064 8.6144 11.3578 8.6144 8.21395C8.6144 5.07009 11.1377 2.52148 14.2505 2.52148C17.3632 2.52148 19.8865 5.07009 19.8865 8.21395ZM4.7409 24.7657C5.8254 21.1547 7.7758 19.3392 9.6171 18.3982C11.4946 17.4387 13.3444 17.346 14.2501 17.346C15.1559 17.346 17.0057 17.4387 18.8832 18.3982C20.7244 19.3392 22.6748 21.1547 23.7593 24.7657C23.9182 25.2947 24.4758 25.5947 25.0047 25.4358C25.5337 25.277 25.8337 24.7194 25.6748 24.1905C24.4333 20.0567 22.1194 17.8061 19.7933 16.6173C17.5034 15.447 15.2827 15.346 14.2501 15.346C13.2176 15.346 10.9969 15.447 8.70694 16.6173C6.38083 17.8061 4.06691 20.0567 2.82542 24.1905C2.66656 24.7194 2.96658 25.277 3.49553 25.4358C4.02447 25.5947 4.58204 25.2947 4.7409 24.7657Z" fill="#201F21"/>
</svg>
